<svg xmlns="http://www.w3.org/2000/svg" width="1200" height="630" viewBox="0 0 1200 630">
<defs>
  <pattern id="gl-minor" width="15" height="15" patternUnits="userSpaceOnUse">
    <path d="M 15 0 L 0 0 0 15" fill="none" stroke="rgba(47,91,234,0.06)" stroke-width="1"/>
  </pattern>
  <pattern id="gl" width="75" height="75" patternUnits="userSpaceOnUse">
    <rect width="75" height="75" fill="url(#gl-minor)"/>
    <path d="M 75 0 L 0 0 0 75" fill="none" stroke="rgba(47,91,234,0.13)" stroke-width="1.25"/>
  </pattern></defs>
<rect width="1200" height="630" fill="#F4F7FB"/>
<rect width="1200" height="630" fill="url(#gl)"/>
  <path d="M 34 48 h 28 M 48 34 v 28 M 1138 48 h 28 M 1152 34 v 28 M 34 582 h 28 M 48 568 v 28 M 1138 582 h 28 M 1152 568 v 28" stroke="#2F5BEA" stroke-width="1.5"/>
  <rect x="84" y="84" width="64" height="64" fill="none" stroke="#0C1B33" stroke-width="2.2857142857142856"/><rect x="96.8" y="121.75999999999999" width="9.142857142857142" height="13.44" fill="#A8CCF2"/><rect x="111.42857142857142" y="112.16" width="9.142857142857142" height="23.04" fill="#3D8BD9"/><rect x="126.05714285714285" y="100.63999999999999" width="9.142857142857142" height="34.56" fill="#2F5BEA"/>
  <text x="168" y="118" font-family="'Schibsted Grotesk', 'Helvetica Neue', Helvetica, Arial, sans-serif" font-weight="800" font-size="30" fill="#0C1B33">CRM Analytics</text>
  <text x="168" y="144" font-family="'IBM Plex Mono', 'SF Mono', Menlo, Consolas, monospace" font-size="15" letter-spacing="3" fill="#4A5B78">ACADEMY</text>
  <text x="84" y="268" font-family="'IBM Plex Mono', 'SF Mono', Menlo, Consolas, monospace" font-size="20" letter-spacing="4" fill="#2F5BEA">FIG. 01 — FREE COURSE</text>
  <text x="80" y="352" font-family="'Schibsted Grotesk', 'Helvetica Neue', Helvetica, Arial, sans-serif" font-weight="900" font-size="72" letter-spacing="-3" fill="#0C1B33">Learn CRM Analytics</text>
  <text x="84" y="412" font-family="'Schibsted Grotesk', 'Helvetica Neue', Helvetica, Arial, sans-serif" font-size="28" fill="#4A5B78">Data prep to SAQL to dashboards, in 12 languages.</text>
  <g transform="translate(820 420)">
    <rect x="0" y="84" width="36" height="36" fill="#3D8BD9" stroke="#0C1B33" stroke-width="1.5"/><rect x="50" y="66" width="36" height="54" fill="#3D8BD9" stroke="#0C1B33" stroke-width="1.5"/><rect x="100" y="72" width="36" height="48" fill="#3D8BD9" stroke="#0C1B33" stroke-width="1.5"/><rect x="150" y="42" width="36" height="78" fill="#3D8BD9" stroke="#0C1B33" stroke-width="1.5"/><rect x="200" y="24" width="36" height="96" fill="#3D8BD9" stroke="#0C1B33" stroke-width="1.5"/><rect x="250" y="0" width="36" height="120" fill="#2F5BEA" stroke="#0C1B33" stroke-width="1.5"/>
  </g>
  <text x="84" y="548" font-family="'IBM Plex Mono', 'SF Mono', Menlo, Consolas, monospace" font-size="18" fill="#4A5B78">crmanalytics.imswarnil.com</text>
</svg>
